<?xml version="1.0" encoding="UTF-8"?>
<svg id="Calque_1" data-name="Calque 1" xmlns="http://www.w3.org/2000/svg" viewBox="0 0 20 20">
  <defs>
    <style>
      .cls-1 {
        fill: #f8bd2a;
      }

      .cls-1, .cls-2, .cls-3, .cls-4 {
        stroke-width: 0px;
      }

      .cls-2 {
        fill: #643910;
      }

      .cls-3 {
        fill: #bc8b1f;
      }

      .cls-4 {
        fill: #ffd428;
      }
    </style>
  </defs>
  <rect class="cls-4" x="1.54" y="7.69" width="3.08" height="3.08"/>
  <polygon class="cls-4" points="7.69 10.77 13.85 10.77 13.85 9.23 15.38 9.23 15.38 4.62 13.85 4.62 13.85 6.15 12.31 6.15 12.31 7.69 10.77 7.69 10.77 9.23 7.69 9.23 7.69 10.77"/>
  <rect class="cls-1" x="1.54" y="9.23" width="12.31" height="1.54"/>
  <polygon class="cls-4" points="4.62 10.77 4.62 13.85 6.15 13.85 6.15 15.38 13.85 15.38 13.85 13.85 16.92 13.85 16.92 12.31 18.46 12.31 18.46 7.69 16.92 7.69 16.92 9.23 15.38 9.23 15.38 10.77 13.85 10.77 13.85 12.31 7.69 12.31 7.69 10.77 4.62 10.77"/>
  <g>
    <rect class="cls-3" x="16.92" y="6.15" width="1.54" height="1.54" transform="translate(24.62 -10.77) rotate(90)"/>
    <rect class="cls-3" x="15.38" y="7.69" width="1.54" height="1.54"/>
    <rect class="cls-3" x="13.85" y="9.23" width="1.54" height="1.54"/>
    <rect class="cls-3" x="4.62" y="9.23" width="3.08" height="1.54"/>
    <rect class="cls-3" x="3.08" y="10.77" width="1.54" height="3.08"/>
    <rect class="cls-3" x="4.62" y="13.85" width="1.54" height="1.54"/>
    <rect class="cls-3" x="13.85" y="13.85" width="3.08" height="1.54"/>
    <rect class="cls-3" x="16.92" y="12.31" width="1.54" height="1.54"/>
    <rect class="cls-3" x="18.46" y="7.69" width="1.54" height="4.62"/>
    <rect class="cls-3" x="6.15" y="15.38" width="7.69" height="1.54"/>
    <rect class="cls-3" x="7.69" y="10.77" width="6.15" height="1.54"/>
    <rect class="cls-3" x="14.62" y="2.31" width="1.54" height="3.08" transform="translate(19.23 -11.54) rotate(90)"/>
    <rect class="cls-2" x="16.92" y="3.08" width="1.54" height="1.54" transform="translate(21.54 -13.85) rotate(90)"/>
    <rect class="cls-2" x="18.46" y="4.62" width="1.54" height="1.54" transform="translate(24.62 -13.85) rotate(90)"/>
    <rect class="cls-3" x="12.31" y="4.62" width="1.54" height="1.54"/>
    <rect class="cls-3" x="10.77" y="6.15" width="1.54" height="1.54"/>
    <rect class="cls-3" x="1.54" y="6.15" width="3.08" height="1.54"/>
    <rect class="cls-3" y="7.69" width="1.54" height="3.08"/>
    <rect class="cls-3" x="1.54" y="10.77" width="1.54" height="1.54"/>
    <rect class="cls-3" x="15.38" y="4.62" width="1.54" height="3.08"/>
    <rect class="cls-3" x="3.08" y="12.31" width="1.54" height="1.54"/>
    <rect class="cls-3" x="4.62" y="7.69" width="6.15" height="1.54"/>
  </g>
  <rect class="cls-1" x="6.15" y="13.85" width="7.69" height="1.54"/>
  <rect class="cls-2" x="1.54" y="7.69" width="1.55" height="1.55"/>
  <rect class="cls-2" x="4.61" y="10.76" width="1.55" height="1.55"/>
</svg>