<?xml version="1.0" encoding="UTF-8"?>
<svg id="Calque_1" data-name="Calque 1" xmlns="http://www.w3.org/2000/svg" viewBox="0 0 20 20">
  <defs>
    <style>
      .cls-1 {
        fill: #548625;
      }

      .cls-1, .cls-2, .cls-3, .cls-4, .cls-5 {
        stroke-width: 0px;
      }

      .cls-2 {
        fill: #8a0d33;
      }

      .cls-3 {
        fill: #b50d33;
      }

      .cls-4 {
        fill: #ff1442;
      }

      .cls-5 {
        fill: #005000;
      }
    </style>
  </defs>
  <rect class="cls-1" x="5.83" y="5" width="8.33" height="1.66"/>
  <polygon class="cls-4" points="4.17 6.67 5.84 6.67 5.84 8.33 7.5 8.33 7.5 6.67 9.17 6.67 9.17 8.33 10.84 8.33 10.83 6.67 12.5 6.67 12.5 8.33 14.17 8.32 14.17 6.67 15.83 6.66 15.83 14.99 14.17 15 14.17 16.67 12.5 16.67 12.5 18.33 7.5 18.33 7.5 16.67 5.83 16.67 5.83 15 4.17 15.01 4.17 6.67"/>
  <rect class="cls-2" x="7.5" y="18.33" width="5" height="1.67"/>
  <rect class="cls-2" x="5.83" y="16.66" width="1.67" height="1.67"/>
  <rect class="cls-2" x="4.17" y="15" width="1.67" height="1.67"/>
  <rect class="cls-5" x="4.17" y="5" width="1.67" height="1.67"/>
  <rect class="cls-5" x="14.17" y="4.99" width="1.67" height="1.67"/>
  <rect class="cls-5" x="5.83" y="3.33" width="8.33" height="1.67"/>
  <rect class="cls-2" x="2.5" y="6.67" width="1.67" height="8.34"/>
  <rect class="cls-2" x="14.17" y="15" width="1.67" height="1.67"/>
  <rect class="cls-2" x="15.83" y="6.66" width="1.67" height="8.33"/>
  <rect class="cls-2" x="12.5" y="16.67" width="1.67" height="1.67"/>
  <rect class="cls-5" x="9.17" width="1.67" height="3.33"/>
  <rect class="cls-5" x="5.84" y="6.67" width="1.67" height="1.67"/>
  <rect class="cls-5" x="9.17" y="6.67" width="1.67" height="1.67"/>
  <rect class="cls-5" x="7.5" y="5" width="1.67" height="1.67"/>
  <rect class="cls-5" x="10.83" y="5" width="1.67" height="1.67"/>
  <rect class="cls-5" x="12.5" y="6.67" width="1.67" height="1.67"/>
  <rect class="cls-3" x="4.17" y="9.99" width="1.67" height="1.67"/>
  <rect class="cls-3" x="7.5" y="11.66" width="1.67" height="1.67"/>
  <rect class="cls-3" x="10.83" y="13.34" width="1.67" height="1.67"/>
  <rect class="cls-3" x="7.5" y="15" width="1.67" height="1.67"/>
  <rect class="cls-3" x="10.83" y="10" width="1.67" height="1.67"/>
  <rect class="cls-3" x="14.17" y="8.32" width="1.67" height="1.67"/>
  <rect class="cls-3" x="14.17" y="11.66" width="1.67" height="1.67"/>
</svg>