<?xml version="1.0" encoding="UTF-8"?>
<svg id="Calque_1" data-name="Calque 1" xmlns="http://www.w3.org/2000/svg" viewBox="0 0 20 20">
  <defs>
    <style>
      .cls-1 {
        fill: #64010d;
      }

      .cls-1, .cls-2, .cls-3, .cls-4, .cls-5, .cls-6 {
        stroke-width: 0px;
      }

      .cls-2 {
        fill: #b50d33;
      }

      .cls-3 {
        fill: #b2e503;
      }

      .cls-4 {
        fill: #90b704;
      }

      .cls-5 {
        fill: #ff1442;
      }

      .cls-6 {
        fill: #005000;
      }
    </style>
  </defs>
  <polygon class="cls-2" points="9.33 17.33 10.67 17.33 10.67 18.67 16 18.67 16 17.33 17.33 17.33 17.33 12 16 12 16 10.66 10.67 10.66 10.67 12 9.33 12 9.33 17.33"/>
  <polygon class="cls-2" points="8 17.33 4 17.33 4 16 2.67 16 2.67 10.66 4 10.66 4 9.33 9.33 9.33 9.33 12 8 12 8 17.33"/>
  <g>
    <rect class="cls-1" x="8" y="12" width="1.33" height="5.33"/>
    <rect class="cls-1" x="17.33" y="12" width="1.33" height="5.33"/>
    <rect class="cls-1" x="12.67" y="7.33" width="1.33" height="5.33" transform="translate(23.33 -3.34) rotate(90)"/>
    <rect class="cls-1" x="12.67" y="16.67" width="1.33" height="5.33" transform="translate(32.67 6) rotate(90)"/>
    <rect class="cls-1" x="9.33" y="10.66" width="1.33" height="1.33"/>
    <rect class="cls-1" x="9.33" y="17.33" width="1.33" height="1.33"/>
    <rect class="cls-1" x="16" y="17.33" width="1.33" height="1.33"/>
    <rect class="cls-1" x="16" y="10.66" width="1.33" height="1.33"/>
    <rect class="cls-5" x="10.67" y="13.33" width="1.33" height="2.67"/>
    <rect class="cls-5" x="12" y="16" width="1.33" height="1.33"/>
    <rect class="cls-1" x="1.33" y="10.66" width="1.33" height="5.33"/>
    <rect class="cls-1" x="6" y="6" width="1.33" height="5.33" transform="translate(15.33 2) rotate(90)"/>
    <rect class="cls-1" x="6" y="15.33" width="1.33" height="5.33" transform="translate(24.67 11.33) rotate(90)"/>
    <rect class="cls-1" x="2.67" y="9.33" width="1.33" height="1.33"/>
    <rect class="cls-1" x="2.67" y="16" width="1.33" height="1.33"/>
    <rect class="cls-1" x="9.33" y="9.33" width="1.33" height="1.33"/>
    <rect class="cls-5" x="4" y="12" width="1.33" height="2.67"/>
    <rect class="cls-5" x="5.33" y="14.67" width="1.33" height="1.33"/>
    <rect class="cls-6" x="8" y="5.33" width="1.33" height="1.33"/>
    <rect class="cls-6" x="9.33" y="4.01" width="1.33" height="1.33"/>
    <rect class="cls-6" x="12" y="2.68" width="1.33" height="1.33"/>
    <rect class="cls-6" x="16" y="2.7" width="1.33" height="1.33"/>
    <rect class="cls-6" x="13.33" y="4" width="2.67" height="1.33"/>
    <rect class="cls-6" x="13.33" y="1.35" width="1.33" height="1.33"/>
    <rect class="cls-6" x="17.33" y="1.35" width="1.33" height="1.33"/>
    <rect class="cls-6" x="14.67" width="4" height="1.33"/>
    <rect class="cls-6" x="6.67" y="2.68" width="2.67" height="1.33"/>
    <rect class="cls-6" x="5.33" y="1.33" width="1.33" height="1.33"/>
    <rect class="cls-6" x="5.33" width="5.33" height="1.33"/>
    <rect class="cls-6" x="10.67" y="1.33" width="1.33" height="2.67"/>
    <rect class="cls-6" x="12" y="4" width="1.33" height="5.33"/>
    <rect class="cls-6" x="6.67" y="6.67" width="1.33" height="1.35"/>
  </g>
  <polygon class="cls-4" points="9.33 4.02 10.67 4 10.67 1.33 6.67 1.33 6.67 2.67 9.33 2.68 9.33 4.02"/>
  <polygon class="cls-3" points="13.33 2.68 13.33 4 16 4 16 2.7 17.33 2.68 17.33 1.35 14.67 1.33 14.67 2.68 13.33 2.68"/>
</svg>