<?xml version="1.0" encoding="UTF-8"?>
<svg id="Calque_1" data-name="Calque 1" xmlns="http://www.w3.org/2000/svg" viewBox="0 0 20 20">
  <defs>
    <style>
      .cls-1, .cls-2, .cls-3, .cls-4 {
        stroke-width: 0px;
      }

      .cls-2 {
        fill: #b50d33;
      }

      .cls-3 {
        fill: #fff;
      }

      .cls-4 {
        fill: #ff1442;
      }
    </style>
  </defs>
  <polygon class="cls-4" points="18 4 2 4 2 14 3.38 14 3.38 18.46 16.77 18.46 16.77 14 18 14 18 4"/>
  <rect class="cls-1" x="6" y="2" width="2" height="2"/>
  <rect class="cls-2" x="8" y="2" width="2" height="2"/>
  <rect class="cls-2" x="10" y="2" width="2" height="2"/>
  <rect class="cls-1" x="12" y="2" width="2" height="2"/>
  <rect class="cls-3" x="14" y="2" width="2" height="2"/>
  <rect class="cls-3" x="14" y="4" width="2" height="2"/>
  <rect class="cls-3" x="12" y="4" width="2" height="2"/>
  <rect class="cls-3" x="4" y="2" width="2" height="2"/>
  <rect class="cls-3" x="4" y="4" width="2" height="2"/>
  <rect class="cls-3" x="6" y="4" width="2" height="2"/>
  <rect class="cls-1" x="6" width="2" height="2"/>
  <rect class="cls-1" x="8" width="2" height="2"/>
  <rect class="cls-1" x="10" width="2" height="2"/>
  <rect class="cls-1" x="12" width="2" height="2"/>
  <rect class="cls-1" x="14" width="2" height="2"/>
  <rect class="cls-1" x="4" width="2" height="2"/>
  <rect class="cls-1" x="16" y="2" width="2" height="2"/>
  <rect class="cls-1" x="2" y="2" width="2" height="2"/>
  <rect class="cls-1" x="18" y="4" width="2" height="2"/>
  <rect class="cls-1" x="18" y="6" width="2" height="2"/>
  <rect class="cls-1" x="18" y="8" width="2" height="2"/>
  <rect class="cls-1" x="18" y="10" width="2" height="2"/>
  <rect class="cls-1" x="18" y="12" width="2" height="2"/>
  <rect class="cls-1" y="4" width="2" height="2"/>
  <rect class="cls-1" y="6" width="2" height="2"/>
  <rect class="cls-1" y="8" width="2" height="2"/>
  <rect class="cls-1" y="10" width="2" height="2"/>
  <rect class="cls-1" y="12" width="2" height="2"/>
  <rect class="cls-1" x="16" y="14" width="2" height="2"/>
  <rect class="cls-1" x="16" y="16" width="2" height="2"/>
  <rect class="cls-1" x="16" y="18" width="2" height="2"/>
  <rect class="cls-1" x="2" y="14" width="2" height="2"/>
  <rect class="cls-1" x="2" y="16" width="2" height="2"/>
  <rect class="cls-1" x="2" y="18" width="2" height="2"/>
  <rect class="cls-1" x="4" y="18" width="2" height="2"/>
  <rect class="cls-1" x="6" y="18" width="2" height="2"/>
  <rect class="cls-1" x="8" y="18" width="2" height="2"/>
  <rect class="cls-1" x="10" y="18" width="2" height="2"/>
  <rect class="cls-1" x="12" y="18" width="2" height="2"/>
  <rect class="cls-1" x="14" y="18" width="2" height="2"/>
  <rect class="cls-2" x="4" y="8" width="2" height="2"/>
  <rect class="cls-2" x="4" y="10" width="2" height="2"/>
  <rect class="cls-2" x="14" y="8" width="2" height="2"/>
  <rect class="cls-2" x="14" y="10" width="2" height="2"/>
  <rect class="cls-2" x="6" y="10" width="2" height="2"/>
  <rect class="cls-2" x="8" y="10" width="2" height="2"/>
  <rect class="cls-2" x="10" y="10" width="2" height="2"/>
  <rect class="cls-2" x="12" y="10" width="2" height="2"/>
  <rect class="cls-2" x="6" y="12" width="2" height="2"/>
  <rect class="cls-2" x="8" y="12" width="2" height="2"/>
  <rect class="cls-2" x="10" y="12" width="2" height="2"/>
  <rect class="cls-2" x="12" y="12" width="2" height="2"/>
  <rect class="cls-2" x="8" y="14" width="2" height="2"/>
  <rect class="cls-2" x="10" y="14" width="2" height="2"/>
</svg>